<svg xmlns="http://www.w3.org/2000/svg" fill="#fff" viewBox="0 0 33 32"><path clip-rule="evenodd" d="m12.715 9.111-3.24 4.463c-.945-4.787.527-9.814 3.945-13.36a16.43 16.43 0 0 1 2.61-.214 15.857 15.857 0 0 1 10.592 4.01 18.11 18.11 0 0 0 -1.86-.102c-.195 0-.389 0-.593.008a16.382 16.382 0 0 0 -11.398 5.14zm-4.315 6.287 2.25 5.074c-4.611-1.573-8.24-5.37-9.602-10.093a15.967 15.967 0 0 1 9.89-9.546 16.658 16.658 0 0 0 -1.306 2.074 16.402 16.402 0 0 0 -1.25 12.445zm-1.101 11.213c.176 0 .361 0 .537-.01a15.004 15.004 0 0 0 9.37-3.712l-5.49-.575-.074-.018a16.425 16.425 0 0 1 -10.149-7.306 16.176 16.176 0 0 1 -1.148-2.167 16.04 16.04 0 0 0 3.333 13.352c1.185.288 2.401.434 3.621.435zm21.092-20.778a14.983 14.983 0 0 0 -3.63-.444 14.948 14.948 0 0 0 -9.907 3.713l5.463.574.037.01.065.018a16.426 16.426 0 0 1 10.148 7.305c.435.695.824 1.417 1.148 2.167.204-1.037.315-2.102.315-3.176 0-3.704-1.296-7.306-3.639-10.167zm-4.741 10.741-2.25-5.047a14.967 14.967 0 0 1 7.898 6.26 14.823 14.823 0 0 1 1.704 3.815 15.92 15.92 0 0 1 -9.89 9.574c.483-.657.927-1.352 1.307-2.083a16.4 16.4 0 0 0 1.25-12.445l-.02-.074zm-1.055 1.852-3.25 4.472-.055.056a16.405 16.405 0 0 1 -11.399 5.13c-.194.01-.398.01-.592.01-.62 0-1.24-.04-1.861-.103a15.855 15.855 0 0 0 10.592 4.009c.88 0 1.769-.075 2.64-.214a15.016 15.016 0 0 0 2.453-3.39 14.996 14.996 0 0 0 1.472-9.971zm-4.125 3.074-5.987-.63-2.449-5.502 3.547-4.87 5.988.63 2.44 5.502zm-6.984-5.435 1.707 3.838 4.176.439-1.708-3.837zm6.873 3.818 2.46-3.38-1.699-3.82-2.46 3.38 1.7 3.82zm-.185-7.834-4.096-.43-2.424 3.336 4.096.43z" fill-rule="evenodd"/></svg>