<svg xmlns="http://www.w3.org/2000/svg" fill="#fff" viewBox="0 0 32 32">
  <path fill-rule="evenodd" d="M16 32c8.837 0 16-7.163 16-16S24.837 0 16 0C7.164 0 0 7.163 0 16s7.164 16 16 16Zm0-1.6c7.953 0 14.4-6.447 14.4-14.4S23.953 1.6 16 1.6C8.048 1.6 1.6 8.047 1.6 16S8.048 30.4 16 30.4ZM28.801 16c0 6.976-5.73 12.632-12.8 12.632S3.201 22.976 3.201 16s5.73-12.632 12.8-12.632 12.8 5.656 12.8 12.632Zm-6.733 5.833c-.97.063-1.816-.62-1.882-1.52l-.237-3.27c-.066-.9.674-1.687 1.644-1.75.97-.064 1.816.62 1.881 1.52l.238 3.27c.065.9-.675 1.687-1.644 1.75Zm-13.192-.888c.065.9.912 1.584 1.881 1.52.97-.063 1.71-.85 1.645-1.75l-.238-3.27c-.065-.9-.912-1.584-1.882-1.52-.969.063-1.709.85-1.643 1.75l.237 3.27Zm12.342-4.691c0-.042 0-.083.01-.123.024-.11-.113-.184-.213-.143l-.006.002c-.137.055-.24.097-.32.228-.08.134-.095.288-.011.421a.237.237 0 0 0 .386.034.598.598 0 0 0 .154-.419Zm-11.368.667c0-.04 0-.082.01-.122.023-.11-.114-.184-.214-.143l-.004.001c-.138.056-.242.098-.32.229-.08.134-.097.288-.013.421a.236.236 0 0 0 .386.034.6.6 0 0 0 .155-.42Z" clip-rule="evenodd"/>
</svg>