<svg xmlns="http://www.w3.org/2000/svg" fill="#fff" viewBox="0 0 20 20">
  <path fill-rule="evenodd" d="m9.506 19.713.495.287.494-.287c8.783-5.104 8.216-14.412 8.122-15.457l-.052-.579L10.001 0 1.436 3.677l-.052.579C1.29 5.3.723 14.609 9.506 19.713Zm.495-1.985C3.607 13.7 3.249 7.09 3.306 5L10 2.126 16.695 5c.034 1.267-.084 4.197-1.608 7.205l-1.735-1.675a.293.293 0 0 1-.078-.3 3.215 3.215 0 0 0-.798-3.32 3.262 3.262 0 0 0-3.238-.842.302.302 0 0 0-.202.361.3.3 0 0 0 .074.132L10.758 8.2a.3.3 0 0 1 0 .417L9.547 9.825a.302.302 0 0 1-.42 0L7.48 8.185a.302.302 0 0 0-.496.129 3.299 3.299 0 0 0 .845 3.22 3.39 3.39 0 0 0 3.348.789.293.293 0 0 1 .29.072l2.159 2.1A14.234 14.234 0 0 1 10 17.729Z" clip-rule="evenodd"/>
</svg>